<svg width="57" height="63" viewBox="0 0 57 63" fill="none" xmlns="http://www.w3.org/2000/svg">
<path d="M41.5368 19.1577C41.3461 18.8429 41.0056 18.6511 40.6386 18.6511H10.5791C10.2345 18.6511 9.91152 18.8203 9.71567 19.1033L0.18665 32.8775C-0.0830332 33.2671 -0.058421 33.789 0.247152 34.151L7.33162 42.5695C7.70281 43.0125 8.36522 43.0709 8.81024 42.6967C9.25423 42.3234 9.31166 41.661 8.93738 41.2181L3.30584 34.5253H13.9947L22.0274 56.772L11.3061 44.0328C10.9338 43.5898 10.2714 43.5293 9.82744 43.9056C9.38344 44.2789 9.32602 44.9413 9.70029 45.3842L24.1841 62.5946C24.6072 63.1222 25.42 63.1219 25.8431 62.5946L49.779 34.151C50.0691 33.8075 50.1071 33.3164 49.8743 32.9318L41.5368 19.1577ZM46.72 34.5253L28 56.7713L36.0324 34.5253H46.72ZM47.1134 32.4253H35.9967L34.1078 27.8674C33.8863 27.3321 33.269 27.0789 32.7358 27.2993C32.2006 27.5218 31.9452 28.136 32.1678 28.6713L33.7235 32.4253H16.3035L21.1408 20.7511H28.8863L30.6676 25.0506C30.8894 25.5918 31.5177 25.8385 32.0396 25.6187C32.5748 25.3972 32.8291 24.783 32.6077 24.2467L31.1594 20.7511H40.0469L47.1134 32.4253ZM11.1297 20.7511H18.8676L14.0304 32.4253H3.0529L11.1297 20.7511ZM33.7995 34.5253L25.0136 58.8588L16.2277 34.5253H33.7995Z" fill="#022833"/>
<path d="M55.4636 8.40005C51.4113 8.40005 48.1136 5.10237 48.1136 1.05001C48.1136 0.469636 47.644 0 47.0636 0C46.4832 0 46.0136 0.469636 46.0136 1.05001C46.0136 5.10238 42.7159 8.40005 38.6635 8.40005C38.0832 8.40005 37.6135 8.86969 37.6135 9.45006C37.6135 10.0304 38.0832 10.5001 38.6635 10.5001C42.7159 10.5001 46.0136 13.7977 46.0136 17.8501C46.0136 18.4305 46.4832 18.9001 47.0636 18.9001C47.644 18.9001 48.1136 18.4305 48.1136 17.8501C48.1136 13.7977 51.4113 10.5001 55.4636 10.5001C56.044 10.5001 56.5136 10.0304 56.5136 9.45006C56.5136 8.86969 56.044 8.40005 55.4636 8.40005ZM47.0636 13.5229C46.1623 11.7798 44.7339 10.3514 42.9907 9.45006C44.7339 8.54873 46.1623 7.12036 47.0636 5.37718C47.9649 7.12036 49.3933 8.54873 51.1365 9.45006C49.3933 10.3514 47.9649 11.7798 47.0636 13.5229Z" fill="#022833"/>
</svg>
