<svg width="54" height="52" viewBox="0 0 54 52" fill="none" xmlns="http://www.w3.org/2000/svg">
<path d="M25.4533 51.9942C25.4128 51.9942 25.3781 51.9942 25.3376 51.9942C18.8875 51.9653 12.744 49.5183 8.04094 45.1102C6.62365 43.7797 5.36255 42.293 4.28657 40.6848C1.48092 36.4966 0 31.6084 0 26.5467C0 21.4849 1.48092 16.5967 4.28657 12.4085C5.36255 10.8003 6.62944 9.30782 8.04094 7.98309C12.744 3.56925 18.8875 1.12226 25.3376 1.09912C25.3781 1.09912 25.4128 1.09912 25.4533 1.09912C28.4904 1.09912 31.458 1.62554 34.2752 2.6726L36.1322 3.361L34.6165 4.63945C33.9975 5.16587 33.4422 5.76171 32.9736 6.42118C31.7704 8.093 31.1341 10.0714 31.1341 12.1366C31.1341 12.9233 31.244 13.7622 31.458 14.6357C32.4761 18.7776 35.6578 22.9832 38.1453 25.7831C38.4287 26.1012 38.7296 26.431 39.0246 26.7491C39.794 27.5706 40.465 28.2358 40.9452 28.6928C41.6046 28.0681 42.6285 27.0557 43.7624 25.7831C45.4805 23.8567 46.9209 21.9477 48.0374 20.1081L49.4836 17.7363L50.1488 20.4321C50.6406 22.4221 50.8893 24.4815 50.8893 26.5525C50.8893 31.6142 49.4084 36.5024 46.6027 40.6906C45.5267 42.2988 44.2657 43.7855 42.8484 45.116C38.1453 49.5299 32.0018 51.9769 25.5517 52C25.5285 51.9942 25.488 51.9942 25.4533 51.9942ZM25.4533 49.6803C25.4823 49.6803 25.5112 49.6803 25.5401 49.6803H25.5517C31.4175 49.6571 37.0057 47.4358 41.2807 43.4211C42.5649 42.212 43.7161 40.8584 44.6937 39.4006C47.2449 35.5942 48.5927 31.1456 48.5927 26.5467C48.5927 25.598 48.5349 24.6492 48.4192 23.7179C47.5572 24.9096 46.5796 26.1128 45.5036 27.3218C43.4558 29.6184 41.7897 31.082 41.7203 31.1398L40.9567 31.8051L40.1931 31.1283C40.1411 31.082 38.9552 30.0349 37.347 28.3168C37.0346 27.9813 36.7222 27.64 36.4272 27.3045C33.7604 24.3137 30.3415 19.7784 29.2135 15.1794C28.9532 14.1266 28.8259 13.1027 28.8259 12.1308C28.8259 9.57392 29.6126 7.13272 31.0993 5.06174C31.296 4.78985 31.5043 4.52375 31.7241 4.26343C29.6936 3.69073 27.5937 3.40149 25.4533 3.40149C25.4244 3.40149 25.3955 3.40149 25.3666 3.40149H25.355C19.4892 3.42463 13.901 5.64601 9.62599 9.6607C8.34175 10.8639 7.19057 12.2176 6.21293 13.6812C3.66181 17.4934 2.31394 21.9419 2.31394 26.5409C2.31394 31.1456 3.66181 35.5884 6.20714 39.3948C7.18478 40.8584 8.33597 42.212 9.6202 43.4211C13.901 47.43 19.4834 49.6571 25.355 49.6803H25.3666C25.3955 49.6803 25.4244 49.6803 25.4533 49.6803Z" fill="#022833"/>
<path d="M25.4533 51.9942C25.4128 51.9942 25.3723 51.9942 25.3318 51.9942C22.9138 51.9595 20.5478 50.8025 18.4941 48.6564C16.6025 46.6779 14.977 43.8549 13.7853 40.4939C12.3217 36.3578 11.5465 31.5332 11.5465 26.5467C11.5465 21.5601 12.3217 16.7356 13.7853 12.5994C14.977 9.2384 16.6025 6.4154 18.4941 4.43698C20.5478 2.2908 22.9138 1.13383 25.3318 1.09912C25.3723 1.09912 25.4128 1.09912 25.4533 1.09912C28.1259 1.09912 30.706 2.44121 32.91 4.98654L33.5116 5.67494L32.9794 6.4154C31.7762 8.08722 31.1398 10.0656 31.1398 12.1308C31.1398 12.9176 31.2497 13.7564 31.4638 14.6299C32.4819 18.7718 35.6636 22.9774 38.1511 25.7773C38.4345 26.0954 38.7353 26.4252 39.0304 26.7434L39.3543 27.0847L39.3427 27.5532C39.2444 32.1753 38.475 36.6528 37.1156 40.4939C35.9239 43.8549 34.2983 46.6779 32.4067 48.6564C30.3531 50.8025 27.9871 51.9595 25.569 51.9942C25.5343 51.9942 25.4938 51.9942 25.4533 51.9942ZM25.4533 49.6803C25.4822 49.6803 25.5112 49.6803 25.5401 49.6803C27.3565 49.6514 29.1036 48.7721 30.7465 47.054C32.4125 45.3127 33.8645 42.7732 34.9462 39.7188C36.1784 36.2363 36.8957 32.1811 37.0288 27.9697C36.8263 27.7499 36.6239 27.5301 36.433 27.3103C33.7604 24.3137 30.3415 19.7784 29.2135 15.1794C28.9531 14.1266 28.8259 13.1027 28.8259 12.1308C28.8259 9.89787 29.4275 7.74591 30.5729 5.86005C28.9705 4.25186 27.2177 3.40728 25.4533 3.40728C25.4244 3.40728 25.3955 3.40728 25.3665 3.40728C23.5501 3.4362 21.8031 4.3155 20.166 6.0336C18.4999 7.77484 17.0479 10.3144 15.9662 13.3688C14.5894 17.262 13.8605 21.8147 13.8605 26.5467C13.8605 31.2787 14.5894 35.8313 15.9662 39.7246C17.0479 42.7732 18.4999 45.3127 20.1602 47.054C21.7973 48.7663 23.5501 49.6514 25.3608 49.6803C25.3955 49.6803 25.4244 49.6803 25.4533 49.6803Z" fill="#022833"/>
<path d="M26.6103 2.24438H24.2964V50.8313H26.6103V2.24438Z" fill="#022833"/>
<path d="M49.7439 25.384H44.6359V27.698H49.7439V25.384Z" fill="#022833"/>
<path d="M37.2891 25.384H1.15698V27.698H37.2891V25.384Z" fill="#022833"/>
<path d="M25.4533 16.5505C21.5717 16.5505 17.8405 15.7001 14.3696 14.0167C12.0498 12.8944 9.92101 11.4251 8.04094 9.66072L7.14429 8.81613L8.04094 7.97154C12.744 3.5577 18.8875 1.11071 25.3376 1.08179C25.3781 1.08179 25.4128 1.08179 25.4533 1.08179C28.4904 1.08179 31.458 1.60821 34.2752 2.65527L36.1322 3.34366L34.6165 4.62211C33.9975 5.14853 33.4422 5.74437 32.9736 6.40385C31.7704 8.07567 31.134 10.0541 31.134 12.1193C31.134 12.906 31.244 13.7448 31.458 14.6183L31.7472 15.7869L30.5671 16.0298C28.8953 16.3769 27.1772 16.5505 25.4533 16.5505ZM10.5747 8.82191C12.0441 10.0541 13.6522 11.1011 15.3819 11.9399C18.5347 13.4671 21.9246 14.2423 25.4533 14.2423C26.6334 14.2423 27.8135 14.1555 28.9763 13.9762C28.878 13.3457 28.8317 12.7267 28.8317 12.1308C28.8317 9.57394 29.6184 7.13274 31.1051 5.06176C31.3018 4.78987 31.5101 4.52377 31.7299 4.26345C29.6994 3.69075 27.5995 3.40151 25.4591 3.40151C25.4302 3.40151 25.4013 3.40151 25.3723 3.40151H25.3608C19.9114 3.42465 14.7109 5.33943 10.5747 8.82191Z" fill="#022833"/>
<path d="M25.4533 51.9941C18.9569 51.9941 12.7729 49.5471 8.04094 45.1043L7.14429 44.2597L8.04094 43.4151C9.9268 41.645 12.0556 40.1814 14.3696 39.0592C17.8405 37.3758 21.5659 36.5254 25.4533 36.5254C29.335 36.5254 33.0662 37.3758 36.5371 39.0592C38.851 40.1814 40.9856 41.645 42.8657 43.4151L43.7624 44.2597L42.8657 45.1043C38.1279 49.5471 31.9439 51.9941 25.4533 51.9941ZM10.5747 44.2597C14.7398 47.7596 19.9751 49.6743 25.4533 49.6743C30.9316 49.6743 36.1669 47.7596 40.332 44.2597C38.8626 43.0276 37.2544 41.9805 35.5247 41.1417C32.372 39.6145 28.9821 38.8393 25.4533 38.8393C21.9246 38.8393 18.5289 39.6203 15.3761 41.1475C13.6522 41.9805 12.0383 43.0276 10.5747 44.2597Z" fill="#022833"/>
<path d="M40.9509 31.7993L40.1931 31.1283C40.141 31.082 38.9551 30.0349 37.3469 28.3168C37.0346 27.9813 36.7222 27.64 36.4272 27.3045C33.7603 24.3137 30.3415 19.7784 29.2135 15.1794C28.9531 14.1266 28.8259 13.1027 28.8259 12.1308C28.8259 9.57392 29.6126 7.13272 31.0993 5.06174C31.6836 4.25186 32.3662 3.5114 33.1298 2.8635C35.3107 1.01813 38.0932 0 40.9567 0C47.644 0 53.0875 5.44354 53.0875 12.1308C53.0875 14.8902 52.0578 17.9735 50.0331 21.3056C48.8414 23.2609 47.32 25.2856 45.5094 27.316C43.4615 29.6126 41.7955 31.0762 41.7261 31.134L40.9509 31.7993ZM40.9567 2.31394C38.637 2.31394 36.3867 3.13539 34.6223 4.62788C34.0033 5.1543 33.448 5.75014 32.9794 6.40961C31.7761 8.08143 31.1398 10.0598 31.1398 12.125C31.1398 12.9118 31.2497 13.7506 31.4638 14.6241C32.4819 18.766 35.6636 22.9716 38.151 25.7715C38.4345 26.0897 38.7353 26.4194 39.0303 26.7376C39.7997 27.559 40.4765 28.2243 40.9509 28.6813C41.6104 28.0565 42.6343 27.0442 43.7681 25.7657C45.4862 23.8394 46.9267 21.9304 48.0431 20.0908C49.848 17.1289 50.762 14.4448 50.762 12.1193C50.7678 6.71621 46.3655 2.31394 40.9567 2.31394Z" fill="#022833"/>
<path d="M40.9567 16.4694C38.5618 16.4694 36.6123 14.5199 36.6123 12.1249C36.6123 9.73001 38.5618 7.78052 40.9567 7.78052C43.3517 7.78052 45.3011 9.73001 45.3011 12.1249C45.3011 14.5199 43.3459 16.4694 40.9567 16.4694ZM40.9567 10.1002C39.8403 10.1002 38.9262 11.0085 38.9262 12.1307C38.9262 13.2472 39.8345 14.1612 40.9567 14.1612C42.079 14.1612 42.9872 13.253 42.9872 12.1307C42.9814 11.0085 42.0732 10.1002 40.9567 10.1002Z" fill="#022833"/>
</svg>
