<svg width="50" height="55" viewBox="0 0 50 55" fill="none" xmlns="http://www.w3.org/2000/svg">
<path d="M25 0C18.3719 0.00757616 12.0175 2.64393 7.3307 7.3307C2.64393 12.0175 0.00757616 18.3719 0 25V32.5C0.00150533 33.8256 0.528773 35.0965 1.46613 36.0339C2.40348 36.9712 3.67438 37.4985 5 37.5C5.9138 37.4961 6.80867 37.2393 7.58544 36.7579C8.43431 45.7042 15.6011 55 25 55C31.0401 55 36.1441 51.1514 39.2562 46.0333C42.775 44.6669 45.9688 42.0106 47.3605 36.8801C48.1551 36.4565 48.8201 35.8256 49.2849 35.0544C49.7496 34.2832 49.9967 33.4004 50 32.5V25C49.9924 18.3719 47.3561 12.0175 42.6693 7.3307C37.9825 2.64393 31.6281 0.00757616 25 0ZM25 2.5C30.642 2.50835 36.0754 4.63446 40.2247 8.45753C44.374 12.2806 46.9369 17.5221 47.4062 23.1446C46.6431 22.706 45.775 22.4835 44.895 22.501C44.015 22.5184 43.1564 22.7753 42.4113 23.2439C41.9763 18.9285 39.9542 14.9285 36.7372 12.0195C33.5202 9.11047 29.3375 7.49979 25.0002 7.49979C20.663 7.49979 16.4803 9.11047 13.2633 12.0195C10.0463 14.9285 8.02422 18.9285 7.58919 23.2439C6.84412 22.7753 5.9855 22.5184 5.1055 22.501C4.2255 22.4835 3.35735 22.706 2.59425 23.1446C3.06355 17.5221 5.62641 12.2808 9.77562 8.4577C13.9248 4.63464 19.358 2.50848 25 2.5ZM39.2351 20.3003C31.4816 21.9816 24.5461 20.2785 19.6338 15.3662C19.3994 15.1318 19.0815 15.0001 18.75 15.0001C18.4185 15.0001 18.1006 15.1318 17.8662 15.3662C15.7654 17.4662 13.8954 19.308 10.9355 19.8349C12.0045 16.9119 13.9573 14.3944 16.5227 12.6322C19.0882 10.87 22.1388 9.95058 25.2507 10.0017C28.3627 10.0529 31.3814 11.072 33.8875 12.9176C36.3937 14.7632 38.2627 17.3437 39.2351 20.3003ZM5 35C4.33716 34.9993 3.70166 34.7357 3.23296 34.267C2.76427 33.7983 2.50066 33.1628 2.5 32.5V27.5C2.5 26.837 2.76339 26.2011 3.23223 25.7322C3.70107 25.2634 4.33696 25 5 25C5.66304 25 6.29893 25.2634 6.76777 25.7322C7.23661 26.2011 7.5 26.837 7.5 27.5V32.5C7.49934 33.1628 7.23573 33.7983 6.76704 34.267C6.29834 34.7357 5.66284 34.9993 5 35ZM25 52.5C16.5527 52.5 10 43.0933 10 35V25C10.0048 24.1397 10.0836 23.2814 10.2357 22.4346C14.1222 22.1135 16.6385 20.0703 18.772 17.9895C22.8524 21.6123 28.1453 23.5695 33.6011 23.4729C35.6909 23.4434 37.7716 23.1914 39.8081 22.7213C39.93 23.4748 39.9942 24.2366 40 25V35C39.9413 38.1494 39.0965 41.2341 37.5424 43.974C35.0188 44.7108 32.3971 45.0558 29.7688 44.9971C29.5115 44.2687 29.0353 43.6377 28.4053 43.1907C27.7753 42.7436 27.0225 42.5023 26.25 42.5H23.75C22.7554 42.5 21.8016 42.8951 21.0983 43.5984C20.3951 44.3016 20 45.2554 20 46.25C20 47.2446 20.3951 48.1984 21.0983 48.9016C21.8016 49.6049 22.7554 50 23.75 50H26.25C27.0235 49.9976 27.7772 49.7557 28.4076 49.3076C29.038 48.8594 29.5141 48.227 29.7705 47.4972C31.6637 47.5041 33.5545 47.359 35.4245 47.0633C32.7493 50.2725 29.1023 52.5 25 52.5ZM27.5 46.25C27.4996 46.5814 27.3677 46.8991 27.1334 47.1334C26.8991 47.3677 26.5814 47.4996 26.25 47.5H23.75C23.4185 47.5 23.1005 47.3683 22.8661 47.1339C22.6317 46.8995 22.5 46.5815 22.5 46.25C22.5 45.9185 22.6317 45.6005 22.8661 45.3661C23.1005 45.1317 23.4185 45 23.75 45H26.25C26.5814 45.0004 26.8991 45.1323 27.1334 45.3666C27.3677 45.6009 27.4996 45.9186 27.5 46.25ZM41.175 42.1056C41.8175 40.3841 42.2341 38.5865 42.4145 36.7579C43.0668 37.1529 43.8015 37.3917 44.5614 37.4556C43.8951 39.2947 42.7209 40.9071 41.175 42.1056ZM47.5 32.5C47.5 33.163 47.2366 33.7989 46.7678 34.2678C46.2989 34.7366 45.663 35 45 35C44.337 35 43.7011 34.7366 43.2322 34.2678C42.7634 33.7989 42.5 33.163 42.5 32.5V27.5C42.5 26.837 42.7634 26.2011 43.2322 25.7322C43.7011 25.2634 44.337 25 45 25C45.663 25 46.2989 25.2634 46.7678 25.7322C47.2366 26.2011 47.5 26.837 47.5 27.5V32.5Z" fill="#022833"/>
<path d="M21.25 32.5C21.4223 32.5004 21.5928 32.4646 21.7505 32.395C22.054 32.2621 22.2924 32.0141 22.4132 31.7056C22.5341 31.3971 22.5275 31.0532 22.395 30.7495C22.1123 30.0024 21.6159 29.3552 20.9677 28.8884C20.3194 28.4217 19.5481 28.1562 18.75 28.125C17.9518 28.1562 17.1806 28.4217 16.5323 28.8884C15.8841 29.3552 15.3877 30.0024 15.105 30.7495C15.0383 30.9 15.0021 31.0622 14.9983 31.2268C14.9945 31.3914 15.0232 31.5551 15.0829 31.7085C15.1425 31.8619 15.2319 32.002 15.3459 32.1208C15.4599 32.2396 15.5962 32.3347 15.747 32.4006C15.8979 32.4666 16.0603 32.502 16.2248 32.505C16.3894 32.508 16.553 32.4785 16.7061 32.418C16.8593 32.3576 16.999 32.2676 17.1172 32.153C17.2354 32.0384 17.3298 31.9017 17.395 31.7505C18.0102 30.3418 19.4897 30.3418 20.105 31.7505C20.2022 31.9733 20.3623 32.1629 20.5657 32.2961C20.7691 32.4292 21.0069 32.5001 21.25 32.5Z" fill="#022833"/>
<path d="M28.2495 32.3951C28.3998 32.4612 28.5617 32.497 28.7259 32.5003C28.8901 32.5037 29.0533 32.4746 29.2062 32.4147C29.3591 32.3548 29.4986 32.2653 29.6169 32.1514C29.7351 32.0374 29.8296 31.9012 29.895 31.7506C30.5103 30.3419 31.9898 30.3419 32.605 31.7506C32.7022 31.9734 32.8623 32.163 33.0657 32.2961C33.2691 32.4292 33.5069 32.5001 33.75 32.5001C33.9224 32.5005 34.0929 32.4647 34.2505 32.3951C34.554 32.2622 34.7924 32.0142 34.9133 31.7057C35.0341 31.3971 35.0275 31.0533 34.895 30.7496C34.6394 29.9851 34.1499 29.3204 33.4958 28.8494C32.8417 28.3784 32.056 28.125 31.25 28.125C30.444 28.125 29.6583 28.3784 29.0042 28.8494C28.3501 29.3204 27.8606 29.9851 27.605 30.7496C27.4725 31.0533 27.4659 31.3971 27.5868 31.7057C27.7076 32.0142 27.946 32.2622 28.2495 32.3951Z" fill="#022833"/>
</svg>
