<svg width="66" height="44" viewBox="0 0 66 44" fill="none" xmlns="http://www.w3.org/2000/svg">
<path d="M11.998 29.1119C16.1361 29.1119 19.502 25.7453 19.502 21.608C19.502 17.4706 16.1361 14.104 11.998 14.104C7.85994 14.104 4.49408 17.4706 4.49408 21.608C4.49408 25.7453 7.86067 29.1119 11.998 29.1119ZM11.998 16.2732C14.9395 16.2732 17.3328 18.6665 17.3328 21.608C17.3328 24.5494 14.9395 26.9427 11.998 26.9427C9.05662 26.9427 6.66327 24.5494 6.66327 21.608C6.66327 18.6665 9.05662 16.2732 11.998 16.2732Z" fill="#022833"/>
<path d="M4.40129 43.7299C6.41069 43.9041 9.10844 44.0003 11.9978 44.0003C23.9956 44.0003 23.9956 42.8586 23.9956 41.8521C23.9956 35.2367 18.6131 29.8542 11.9971 29.8542C5.38249 29.8535 0 35.236 0 41.8521C0 43.1247 1.41938 43.4717 4.40129 43.7299ZM11.9978 32.0227C17.2191 32.0227 21.5025 36.1145 21.8091 41.2599C18.8901 42.022 5.10556 42.022 2.18655 41.2599C2.49385 36.1145 6.77728 32.0227 11.9978 32.0227Z" fill="#022833"/>
<path d="M32.5944 15.0086C36.7325 15.0086 40.0984 11.6421 40.0984 7.50468C40.0984 3.36731 36.7318 0 32.5944 0C28.4563 0 25.0897 3.36659 25.0897 7.50396C25.0897 11.6413 28.4556 15.0086 32.5944 15.0086ZM32.5944 2.16919C35.5358 2.16919 37.9292 4.56254 37.9292 7.50396C37.9292 10.4454 35.5358 12.8387 32.5944 12.8387C29.6523 12.8387 27.2589 10.4454 27.2589 7.50396C27.2589 4.56254 29.6523 2.16919 32.5944 2.16919Z" fill="#022833"/>
<path d="M24.9971 29.6266C27.0065 29.8008 29.7043 29.897 32.5936 29.897C44.5922 29.897 44.5922 28.7553 44.5922 27.7488C44.5922 21.1335 39.2097 15.751 32.5936 15.751C25.9783 15.751 20.5958 21.1335 20.5958 27.7488C20.5958 29.0214 22.0152 29.3677 24.9971 29.6266ZM32.5944 17.9194C37.8149 17.9194 42.0983 22.0113 42.4056 27.1566C39.4866 27.918 25.7021 27.918 22.7831 27.1566C23.0897 22.0113 27.3731 17.9194 32.5944 17.9194Z" fill="#022833"/>
<path d="M53.0778 29.1119C57.2159 29.1119 60.5818 25.7453 60.5818 21.608C60.5818 17.4706 57.2152 14.104 53.0778 14.104C48.9404 14.104 45.5739 17.4706 45.5739 21.608C45.5739 25.7453 48.9397 29.1119 53.0778 29.1119ZM53.0778 16.2732C56.0192 16.2732 58.4126 18.6665 58.4126 21.608C58.4126 24.5494 56.0192 26.9427 53.0778 26.9427C50.1364 26.9427 47.743 24.5494 47.743 21.608C47.743 18.6665 50.1357 16.2732 53.0778 16.2732Z" fill="#022833"/>
<path d="M53.0778 29.8533C46.4617 29.8533 41.0792 35.2358 41.0792 41.8511C41.0792 43.1244 42.4986 43.4707 45.4805 43.7296C47.4899 43.9039 50.1877 44 53.077 44C65.0756 44 65.0756 42.8583 65.0756 41.8518C65.0756 35.2358 59.6931 29.8533 53.0778 29.8533ZM43.2658 41.2596C43.5731 36.1143 47.8565 32.0225 53.077 32.0225C58.2976 32.0225 62.581 36.1143 62.8883 41.2596C59.9693 42.021 46.1848 42.021 43.2658 41.2596Z" fill="#022833"/>
</svg>
